{"title":"The Switch CAM READNFO XViD - IMAGiNE","uid":5786096,"size":744554180,"categoryP":"video","categoryS":"movies","magnet":"?xt=urn:btih:5abcd591e9ccbde1e4818c3612c7f1e278ff36d2&amp;dn=The+Switch+CAM+READNFO+XViD+-+IMAGiNE&amp;tr=udp%3A%2F%2Ftracker.openbittorrent.com%3A80&amp;tr=udp%3A%2F%2Fopen.demonii.com%3A1337&amp;tr=udp%3A%2F%2Ftracker.coppersurfer.tk%3A6969&amp;tr=udp%3A%2F%2Fexodus.desync.com%3A6969","seeders":0,"leechers":0,"uploader":"hiest","files":54,"time":1282637410,"description":"******************************************************************************************************************** \nThe Switch CAM READNFO XViD - IMAGiNE\n********************************************************************************************************************\n\nRipper ...........: IMAGiNE IMDB Rating.......:5.2/10 \nVideo Codec.......: XVID Release Date......:23/08/10\nAudio Codec.......:MP3 Theatre Date......:20/08/10\nAudio Bitrate.....:128 Runtime.......:1h 36mn\nSubtitles.........:NIL Language..........:ENGLISH\nResolution...... 688 x 256 IMDb URL..........:http://www.imdb.com/title/tt0889573/\n\n  &lt;a href=&quot;\nhttp://www.imdb.com/title/tt0889573/&quot; rel=&quot;nofollow&quot; target=&quot;_NEW&quot;&gt;\nhttp://www.imdb.com/title/tt0889573/&lt;/a&gt;\nMOVIEmeter: Up 306% in popularity this week.\nGenre:Comedy | Drama | Romance \n\n \n\nVideo\nID : 0\nFormat : MPEG-4 Visual\nFormat profile : Advanced Simple@L5\nFormat settings, BVOP : Yes\nFormat settings, QPel : No\nFormat settings, GMC : No warppoints\nFormat settings, Matrix : Default (MPEG)\nMuxing mode : Packed bitstream\nCodec ID : XVID\nCodec ID/Hint : XviD\nDuration : 1h 36mn\nBit rate : 882 Kbps\nWidth : 688 pixels\nHeight : 256 pixels\nDisplay aspect ratio : 2.688\nFrame rate : 25.000 fps\nResolution : 24 bits\nColorimetry : 4:2:0\nScan type : Progressive\nBits/(Pixel*Frame) : 0.200\nStream size : 609 MiB (86%)\nWriting library : XviD 1.2.1 (UTC 2008-12-04)\n\nAudio\nID : 1\nFormat : MPEG Audio\nFormat version : Version 1\nFormat profile : Layer 3\nCodec ID : 55\nCodec ID/Hint : MP3\nDuration : 1h 36mn\nBit rate mode : Constant\nBit rate : 128 Kbps\nChannel(s) : 2 channels\nSampling rate : 44.1 KHz\nResolution : 16 bits\nStream size : 88.3 MiB (13%)\nAlignment : Split accross interleaves\nInterleave, duration : 40 ms (1.00 video frame)\nInterleave, preload duration : 500 ms\n\n\n\nSOURCES:\n\nVIDEO:Russian cam ....... Thanks\nAUDIO:The Switch 2010 TS XviD-PolishBits ....... Thanks\n\nNOTES:\n\nIMAGiNE bringing you another release.....The Switch 2010 \n\nRight this is just the russian video cleaned up the best we could.....made it brighter,balance out the colours the best we could,altered\nthe contrast and sharpeness aswell.\nVideo is ok for a cam but is overcropped on the top and bottom.\nAudio..........now for this we have muxed polishbits &quot;line&quot; ,however to use it sounds a little more like cam audio,but very good cam audio.\nSeems to have that echo to it that you get with cams but not on line.\nHowever we could be wrong but this is way we tagged this release CAM READNFO.\n\nEither way enjoy\n\n\n\n &lt;a href=&quot;\nhttp://thepiratebay.se/user/hiest&quot; rel=&quot;nofollow&quot; target=&quot;_NEW&quot;&gt;\nhttp://thepiratebay.se/user/hiest&lt;/a&gt;\n\n\n\n\n\nScreenshots:\n &lt;a href=&quot;\nhttp://postimg.com/image/21000/20262.jpg&quot; rel=&quot;nofollow&quot; target=&quot;_NEW&quot;&gt;\nhttp://postimg.com/image/21000/20262.jpg&lt;/a&gt;","torrent":{"xt":"urn:btih:5abcd591e9ccbde1e4818c3612c7f1e278ff36d2","amp;dn":"The+Switch+CAM+READNFO+XViD+-+IMAGiNE","amp;tr":["udp%3A%2F%2Ftracker.openbittorrent.com%3A80","udp%3A%2F%2Fopen.demonii.com%3A1337","udp%3A%2F%2Ftracker.coppersurfer.tk%3A6969","udp%3A%2F%2Fexodus.desync.com%3A6969"],"infoHash":"5abcd591e9ccbde1e4818c3612c7f1e278ff36d2","infoHashBuffer":{"type":"Buffer","data":[90,188,213,145,233,204,189,225,228,129,140,54,18,199,241,226,120,255,54,210]},"announce":[],"urlList":[]}}